<?xml version="1.0" standalone="no"?>
<!DOCTYPE svg PUBLIC "-//W3C//DTD SVG 20010904//EN"
 "http://www.w3.org/TR/2001/REC-SVG-20010904/DTD/svg10.dtd">
<svg version="1.0" xmlns="http://www.w3.org/2000/svg"
 width="120px" height="80px" viewBox="0 0 1280.000000 1280.000000"
 preserveAspectRatio="xMidYMid meet">
<g transform="translate(0.000000,1280.000000) scale(0.100000,-0.100000)"
fill="blue" stroke="none">
<path d="M5030 10759 c-472 -51 -814 -211 -1200 -561 l-115 -105 -115 -17
c-312 -47 -704 -140 -898 -213 -324 -120 -670 -316 -995 -562 -550 -416 -958
-946 -1180 -1536 -288 -765 -300 -1733 -31 -2555 445 -1362 1579 -2323 2974
-2520 421 -60 892 -45 1324 41 739 148 1454 538 1896 1033 288 324 540 723
693 1101 125 308 268 819 402 1435 26 118 52 220 58 226 12 12 767 184 805
184 12 0 22 -6 22 -14 0 -8 -25 -103 -55 -213 -214 -767 -360 -1477 -417
-2023 -20 -194 -17 -629 5 -768 101 -634 418 -1151 832 -1359 123 -62 217 -85
371 -91 121 -4 152 -1 224 17 157 39 273 107 409 236 183 174 306 386 387 668
19 65 34 124 34 130 -1 35 -38 59 -111 73 -41 8 -79 14 -85 14 -6 0 -28 -53
-49 -117 -48 -143 -137 -329 -210 -439 -113 -169 -276 -291 -440 -330 -97 -22
-239 -15 -320 16 -170 66 -287 287 -337 635 -20 138 -17 576 5 755 46 372 136
810 277 1350 44 168 134 526 200 795 119 483 142 570 181 692 l21 63 66 0
c202 0 417 -105 635 -310 l77 -72 75 57 c70 53 75 60 75 95 0 34 -9 45 -102
136 -57 55 -129 119 -162 143 -140 103 -307 169 -484 191 -48 6 -91 15 -95 19
-9 9 82 311 190 630 442 1316 966 2140 1441 2267 68 18 195 21 237 4 92 -35
134 -142 135 -337 0 -144 35 -236 122 -326 69 -70 137 -97 248 -97 100 0 172
25 238 85 122 110 160 289 101 480 -78 255 -349 440 -696 475 -382 39 -819
-124 -1248 -467 -461 -367 -853 -864 -1176 -1488 -166 -321 -271 -574 -414
-1000 l-101 -300 -409 -102 c-226 -56 -420 -102 -432 -103 -15 0 -23 6 -23 18
0 9 18 103 39 207 208 1002 412 1681 643 2137 177 352 400 601 690 772 174
102 319 145 513 153 171 7 175 10 175 135 0 75 -3 90 -17 96 -33 13 -217 6
-302 -12 -124 -26 -280 -78 -531 -176 -282 -110 -374 -143 -481 -175 -432
-130 -906 -102 -1350 80 -157 64 -255 116 -654 341 -382 215 -500 272 -685
327 -197 60 -334 79 -590 82 -124 2 -263 -1 -310 -6z m385 -245 c155 -14 384
-82 595 -178 63 -29 230 -118 370 -198 491 -280 571 -321 765 -388 270 -92
474 -130 751 -137 212 -6 358 4 524 36 52 11 99 17 103 14 5 -3 -63 -78 -150
-166 -313 -319 -464 -530 -644 -902 -150 -310 -271 -640 -615 -1683 -40 -123
-79 -231 -85 -239 -10 -12 -36 -14 -135 -11 -67 2 -126 6 -130 10 -4 4 3 54
15 110 72 347 79 718 20 1068 -110 651 -457 1253 -953 1652 -451 363 -979 556
-1594 584 -84 4 -155 11 -158 15 -12 21 180 163 313 232 301 155 631 215 1008
181z m-990 -659 c397 -52 760 -188 1095 -411 358 -238 633 -548 824 -930 160
-321 239 -670 239 -1064 1 -220 -16 -363 -64 -547 -34 -132 -43 -153 -68 -153
-48 0 -199 128 -237 202 -13 25 -11 32 21 95 91 174 87 354 -10 450 -43 44
-59 49 -135 43 -61 -4 -119 -48 -153 -115 -37 -74 -47 -224 -25 -358 l12 -71
-76 -70 c-360 -334 -982 -415 -1458 -190 -272 129 -517 343 -692 603 -230 344
-338 707 -338 1136 0 344 60 622 199 918 91 196 259 464 295 472 78 18 400 12
571 -10z m-925 -54 c0 -5 -21 -45 -47 -88 -165 -277 -273 -597 -318 -936 -20
-156 -20 -458 1 -619 111 -857 726 -1573 1492 -1739 140 -30 436 -37 592 -15
291 43 530 140 724 296 46 37 88 70 94 74 7 4 46 -25 91 -67 43 -41 118 -98
165 -128 106 -66 106 -52 -3 -274 -136 -275 -280 -476 -500 -696 -346 -345
-746 -586 -1147 -689 -288 -74 -647 -80 -907 -15 -419 106 -790 369 -1031 734
-190 285 -277 576 -280 931 -1 185 9 279 51 467 23 106 23 113 7 137 -16 26
-76 50 -155 62 l-35 6 -32 -104 c-59 -187 -73 -276 -79 -489 -10 -351 44 -630
176 -904 97 -203 203 -356 361 -519 256 -264 571 -449 934 -546 346 -93 793
-98 1176 -14 515 114 1000 410 1347 825 187 223 358 520 457 794 20 55 41 110
46 123 9 21 15 22 129 22 66 0 122 -4 125 -9 12 -18 -248 -754 -409 -1161
-192 -487 -334 -774 -518 -1050 -481 -721 -1074 -1139 -1812 -1275 -119 -22
-482 -31 -639 -16 -674 66 -1283 338 -1827 817 -130 116 -270 265 -382 409
-92 118 -258 371 -335 510 -385 694 -511 1530 -352 2325 202 1010 812 1862
1735 2423 281 172 540 278 888 367 152 39 217 48 217 31z"/>
</g>
</svg>
