<?xml version="1.0" encoding="UTF-8"?>
<svg version="1.1" xmlns="http://www.w3.org/2000/svg" width="51" height="51">
<path d="M0 0 C1.07572266 -0.00322266 2.15144531 -0.00644531 3.25976562 -0.00976562 C8.32146414 0.02475309 12.30802425 0.07373711 16.9375 2.3125 C19.5959557 5.11087442 20.60652202 7.87657968 21.625 11.5625 C21.87636719 12.45453125 22.12773437 13.3465625 22.38671875 14.265625 C22.65935547 15.27882813 22.65935547 15.27882813 22.9375 16.3125 C23.783125 16.415625 24.62875 16.51875 25.5 16.625 C28.9375 17.3125 28.9375 17.3125 32.375 18.9375 C36.5131848 20.53469413 38.67280061 20.35855834 42.9375 19.3125 C43.576875 18.961875 44.21625 18.61125 44.875 18.25 C48.35068942 16.67014117 51.29211574 16.34708538 54.9375 17.3125 C58.68181774 20.02742345 61.7320821 23.30916663 64.875 26.6875 C65.73673828 27.57695313 66.59847656 28.46640625 67.48632812 29.3828125 C74.83891487 37.03089327 74.83891487 37.03089327 75.1875 41.5625 C74.9375 45.3125 74.9375 45.3125 73.375 48.3125 C71.50474075 52.21564974 71.92982576 54.13784956 72.9375 58.3125 C73.67585673 60.40773218 74.45965378 62.46597795 75.31640625 64.515625 C75.9375 66.3125 75.9375 66.3125 75.9375 69.3125 C76.60136719 69.48265625 77.26523437 69.6528125 77.94921875 69.828125 C79.27373047 70.19164063 79.27373047 70.19164063 80.625 70.5625 C81.49511719 70.79453125 82.36523438 71.0265625 83.26171875 71.265625 C86.51666432 72.53909276 88.45772693 73.83068512 90.9375 76.3125 C91.56860352 79.54882812 91.56860352 79.54882812 91.56640625 83.34375 C91.56881821 84.01668091 91.57123016 84.68961182 91.57371521 85.38293457 C91.57273833 86.80173655 91.55938187 88.22057738 91.53442383 89.63916016 C91.50009765 91.80633478 91.51376889 93.96943203 91.53320312 96.13671875 C91.5263043 97.51824646 91.51663155 98.89976368 91.50390625 100.28125 C91.48759155 102.15973633 91.48759155 102.15973633 91.47094727 104.07617188 C90.84886802 107.85021417 89.94290424 109.0267534 86.9375 111.3125 C84.5703125 112.05078125 84.5703125 112.05078125 82.0625 112.625 C77.70323148 114.24675168 75.91525653 116.29760064 73.89257812 120.49487305 C71.37309547 126.57226978 71.37309547 126.57226978 71.46875 133.05078125 C72.52460937 135.31793763 72.52460937 135.31793763 73.80859375 137.40234375 C75.69575546 140.59549972 75.65522395 142.72388025 74.9375 146.3125 C72.36070884 150.23119837 69.0673974 153.42654444 65.38807487 156.31151104 C60.60696862 160.30344501 57.47881197 163.57416766 56.82145047 169.97535765 C56.64537301 173.75869656 56.69307485 177.52062314 56.77392578 181.3059082 C56.77343169 183.01041329 56.76847185 184.71492199 56.75941467 186.41940308 C56.7495232 190.07428911 56.77095203 193.72713645 56.81726456 197.38173866 C56.89046952 203.17064199 56.89325064 208.95831951 56.88717651 214.74760437 C56.8858936 223.91200526 56.93195544 233.07546094 56.99809444 242.23960036 C57.11533465 258.63129714 57.1615443 275.02319892 57.17618358 291.41528577 C57.18330519 297.15898428 57.21404977 302.90191772 57.26480412 308.64539111 C57.29309892 312.23184377 57.3050763 315.81823238 57.31339836 319.40478134 C57.32078799 321.05547342 57.33506398 322.70615291 57.35711479 324.35671425 C57.54021012 338.45237016 55.84105833 351.49476705 45.9375 362.3125 C32.4480182 374.66202559 16.26401459 373.86818369 -0.86328125 373.703125 C-3.15398156 373.69565194 -5.44468832 373.68996405 -7.73539734 373.68597412 C-13.72445757 373.67080175 -19.71312131 373.63159311 -25.70202637 373.5871582 C-31.82929117 373.54602332 -37.95662089 373.52792439 -44.08398438 373.5078125 C-56.07702392 373.46508998 -68.06966675 373.39480965 -80.0625 373.3125 C-80.0625 383.8725 -80.0625 394.4325 -80.0625 405.3125 C-76.86949219 405.26609375 -73.67648437 405.2196875 -70.38671875 405.171875 C-67.26230455 405.14059701 -64.13790841 405.1163562 -61.01342773 405.09277344 C-58.85742263 405.07277309 -56.70147096 405.04556376 -54.5456543 405.01074219 C-51.43004088 404.96171147 -48.31515029 404.93941486 -45.19921875 404.921875 C-44.24979904 404.90122986 -43.30037933 404.88058472 -42.32218933 404.85931396 C-32.20269087 404.85599121 -22.6849705 407.98147506 -15.25390625 415.02734375 C-6.92954533 423.7670574 -6.55792731 432.85526633 -6.625 444.5625 C-6.60501953 445.81546875 -6.58503906 447.0684375 -6.56445312 448.359375 C-6.56509766 449.5659375 -6.56574219 450.7725 -6.56640625 452.015625 C-6.56455322 453.10520508 -6.5627002 454.19478516 -6.56079102 455.31738281 C-7.18436806 459.04003156 -8.38039224 460.69088647 -11.0625 463.3125 C-13.99723212 464.31173354 -16.71694009 464.43926471 -19.80147362 464.44392776 C-20.75670461 464.44776891 -21.7119356 464.45161005 -22.69611299 464.4555676 C-23.74259779 464.45470112 -24.78908259 464.45383463 -25.86727905 464.45294189 C-26.98127315 464.45591302 -28.09526725 464.45888414 -29.24301875 464.4619453 C-32.98933123 464.47064201 -36.7356118 464.47214136 -40.48193359 464.47363281 C-43.16241101 464.47826023 -45.8428855 464.48326411 -48.52336121 464.48867798 C-55.81461532 464.50225535 -63.10586393 464.50828486 -70.39712858 464.51268864 C-74.94944214 464.51545161 -79.50175358 464.51968902 -84.0540657 464.52419281 C-96.65753992 464.53638384 -109.26101243 464.54668404 -121.86449242 464.5500679 C-123.07425444 464.55039725 -123.07425444 464.55039725 -124.3084561 464.55073325 C-125.52110957 464.55106067 -125.52110957 464.55106067 -126.75826108 464.5513947 C-128.39645791 464.55183817 -130.03465474 464.55228473 -131.67285156 464.55273438 C-132.48545353 464.5529558 -133.29805549 464.55317723 -134.13528176 464.55340537 C-147.30654727 464.55735461 -160.47775749 464.5748132 -173.64900164 464.5980939 C-187.17088784 464.62180157 -200.69274629 464.63426946 -214.21465361 464.63543582 C-221.80709763 464.63635282 -229.39946959 464.6421115 -236.99189377 464.66025543 C-243.45592152 464.67564842 -249.91985493 464.68078159 -256.38389753 464.67251733 C-259.68188436 464.66860816 -262.9796412 464.67118242 -266.27761269 464.68357468 C-269.85315778 464.69622391 -273.42821243 464.69045524 -277.00375366 464.67999268 C-278.04577702 464.68804908 -279.08780038 464.69610548 -280.1614002 464.70440602 C-285.52365461 464.66761436 -289.47365393 464.42705025 -294.0625 461.3125 C-296.01001187 457.92570546 -296.31822437 454.97203453 -296.328125 451.109375 C-296.33070313 450.12839844 -296.33328125 449.14742188 -296.3359375 448.13671875 C-296.32820313 447.12222656 -296.32046875 446.10773438 -296.3125 445.0625 C-296.32410156 443.56396484 -296.32410156 443.56396484 -296.3359375 442.03515625 C-296.30859105 431.57514085 -294.96041367 423.45480344 -288.0625 415.3125 C-280.67605509 408.03919538 -271.03210584 404.85595516 -260.80281067 404.85931396 C-259.37868111 404.89028168 -259.37868111 404.89028168 -257.92578125 404.921875 C-256.92032761 404.92753479 -255.91487396 404.93319458 -254.87895203 404.93902588 C-251.71045525 404.96117295 -248.54314703 405.01132688 -245.375 405.0625 C-243.20900086 405.08259306 -241.04298376 405.10083887 -238.87695312 405.1171875 C-233.60465771 405.15754185 -228.33488751 405.23587265 -223.0625 405.3125 C-223.0625 394.7525 -223.0625 384.1925 -223.0625 373.3125 C-229.0025 373.3125 -234.9425 373.3125 -241.0625 373.3125 C-240.4025 374.6325 -239.7425 375.9525 -239.0625 377.3125 C-238.42695958 380.41958648 -238.4353751 382.35790032 -240.20703125 385.0546875 C-242.07154006 387.24128908 -244.03683516 389.2733532 -246.0625 391.3125 C-247.08481616 392.3605008 -248.10693878 393.40869042 -249.12890625 394.45703125 C-258.73063571 404.22370905 -258.73063571 404.22370905 -263.8125 404.5625 C-267.89645294 404.54038473 -270.42119311 403.13315345 -274.0625 401.3125 C-276.89250856 401.26632909 -276.89250856 401.26632909 -280.0625 402.3125 C-280.93648438 402.49296875 -281.81046875 402.6734375 -282.7109375 402.859375 C-285.88248521 403.69265027 -288.29716548 404.53387749 -291.0625 406.3125 C-292.82192256 409.3382053 -293.88065772 412.181784 -294.8671875 415.53515625 C-296.37646173 419.04199933 -297.66000106 419.6705792 -301.0625 421.3125 C-303.9375 421.70068359 -303.9375 421.70068359 -307.0625 421.7109375 C-308.196875 421.71480469 -309.33125 421.71867187 -310.5 421.72265625 C-311.675625 421.71105469 -312.85125 421.69945312 -314.0625 421.6875 C-315.238125 421.69910156 -316.41375 421.71070313 -317.625 421.72265625 C-318.759375 421.71878906 -319.89375 421.71492188 -321.0625 421.7109375 C-322.09375 421.70755371 -323.125 421.70416992 -324.1875 421.70068359 C-327.48993748 421.25478723 -329.37542967 420.2496626 -332.0625 418.3125 C-334.80003131 414.46385305 -336.47695924 409.99682606 -337.0625 405.3125 C-337.908125 405.209375 -338.75375 405.10625 -339.625 405 C-343.0625 404.3125 -343.0625 404.3125 -346.5625 402.6875 C-350.46344545 401.15498572 -352.09074244 401.19004678 -356.0625 402.3125 C-356.84625 402.663125 -357.63 403.01375 -358.4375 403.375 C-362.2006655 404.71898768 -365.19612012 405.33756081 -369.0625 404.3125 C-373.00826943 401.57808407 -376.23469379 398.25639247 -379.5625 394.8125 C-380.4803125 393.925625 -381.398125 393.03875 -382.34375 392.125 C-389.64696942 384.73483749 -389.64696942 384.73483749 -389.75390625 379.84765625 C-389.0625 376.3125 -389.0625 376.3125 -387.5 373.25 C-385.61008273 369.38799515 -386.0618672 367.45797874 -387.0625 363.3125 C-387.80085673 361.21726782 -388.58465378 359.15902205 -389.44140625 357.109375 C-390.0625 355.3125 -390.0625 355.3125 -390.0625 352.3125 C-390.7225 352.23 -391.3825 352.1475 -392.0625 352.0625 C-396.87911882 350.8583453 -401.5278162 348.8471838 -405.0625 345.3125 C-405.48545126 340.93157797 -405.43409268 336.53573462 -405.43310547 332.13671875 C-405.43747037 329.95232711 -405.47375701 327.76997025 -405.51171875 325.5859375 C-405.5175887 324.1953194 -405.5215569 322.80469171 -405.5234375 321.4140625 C-405.53165527 320.14900879 -405.53987305 318.88395508 -405.54833984 317.58056641 C-404.98045986 313.76064604 -404.10167412 312.61043776 -401.0625 310.3125 C-398.6953125 309.57421875 -398.6953125 309.57421875 -396.1875 309 C-391.82823148 307.37824832 -390.04025653 305.32739936 -388.01757812 301.13012695 C-385.49809547 295.05273022 -385.49809547 295.05273022 -385.59375 288.57421875 C-386.64960937 286.30706237 -386.64960937 286.30706237 -387.93359375 284.22265625 C-389.82075546 281.02950028 -389.78022395 278.90111975 -389.0625 275.3125 C-387.08972706 272.28195736 -384.61887614 269.85567627 -382.0625 267.3125 C-381.15886719 266.36117188 -380.25523437 265.40984375 -379.32421875 264.4296875 C-370.66737512 255.43183888 -370.66737512 255.43183888 -366.0625 254.3125 C-364.05620639 254.605582 -362.05461522 254.93489163 -360.0625 255.3125 C-360.06434359 254.63203959 -360.06618717 253.95157919 -360.06808662 253.25049877 C-360.11234844 236.65638886 -360.14539673 220.06229777 -360.16612434 203.46814251 C-360.17641573 195.44317689 -360.19043496 187.41825079 -360.21337891 179.39331055 C-360.23337848 172.39483656 -360.24623196 165.39639121 -360.25067699 158.39788944 C-360.2532733 154.6958183 -360.25933067 150.99382905 -360.27396011 147.29178429 C-360.2901988 143.14850684 -360.2904755 139.00536976 -360.28955078 134.86206055 C-360.29674133 133.64860962 -360.30393188 132.43515869 -360.31134033 131.18493652 C-360.27887471 117.6922597 -358.34720857 104.77495839 -348.875 94.4375 C-339.04557124 85.56280604 -327.95514051 82.98727734 -315.09666443 83.07199097 C-313.65180281 83.06942769 -313.65180281 83.06942769 -312.17775208 83.06681263 C-308.97185831 83.06353609 -305.766177 83.07449112 -302.56030273 83.08544922 C-300.25358587 83.08601373 -297.94686864 83.08569599 -295.64015198 83.08456421 C-289.39291865 83.08399125 -283.14576238 83.09573642 -276.89854693 83.10971212 C-270.36425847 83.12222893 -263.82996816 83.12339074 -257.29566956 83.12576294 C-246.3330858 83.13093639 -235.37052899 83.14375525 -224.40795898 83.16162109 C-213.11987447 83.17999823 -201.83179764 83.19414574 -190.54370117 83.20263672 C-189.84710872 83.20316217 -189.15051626 83.20368761 -188.43281495 83.20422898 C-184.93797803 83.20683919 -181.44314106 83.20936657 -177.94830406 83.21185279 C-148.98635073 83.23256327 -120.02442604 83.26791887 -91.0625 83.3125 C-91.10117187 82.37792969 -91.13984375 81.44335938 -91.1796875 80.48046875 C-91.0625 77.3125 -91.0625 77.3125 -89.1875 74.625 C-86.07101952 72.31880444 -84.60122177 71.89630985 -80.9375 71.125 C-78.30378964 70.54501778 -78.30378964 70.54501778 -76.0625 69.3125 C-74.25509437 66.11827999 -73.73172629 62.88920523 -73.0625 59.3125 C-72.588125 58.301875 -72.11375 57.29125 -71.625 56.25 C-70.85363893 52.22178108 -72.3250327 50.07321447 -74.07421875 46.47265625 C-75.49150186 43.37480028 -75.84609122 41.66057158 -75.0625 38.3125 C-73.06062344 35.31986419 -70.59422219 32.86107225 -68.0625 30.3125 C-67.04018384 29.2644992 -66.01806122 28.21630958 -64.99609375 27.16796875 C-55.44906772 17.45693414 -55.44906772 17.45693414 -51.0625 17 C-47.59412383 16.98566787 -45.3808971 18.07125752 -42.3125 19.625 C-38.99910075 21.08634607 -37.62038511 21.46458401 -34.08203125 20.5 C-31.32637741 19.21863916 -28.70433337 17.81144373 -26.0625 16.3125 C-24.5775 15.8175 -24.5775 15.8175 -23.0625 15.3125 C-21.72230685 12.3293458 -20.69850426 9.28752996 -19.63671875 6.1953125 C-15.55297141 -1.28311315 -7.48865671 -0.11257752 0 0 Z M-27.0625 71.3125 C-32.31809061 77.64616048 -34.69028385 85.82994881 -34.34375 94.03125 C-33.05711742 104.46726978 -28.23822646 113.44592788 -19.98828125 120.03125 C-12.69279811 124.88504 -4.82155991 127.15324746 3.9375 126.3125 C15.09812655 124.05908256 23.36676585 118.64526841 29.9375 109.3125 C34.54374632 100.79870765 35.65936287 91.40130018 33.01953125 82.06640625 C28.90007012 71.38780312 23.19168271 65.36143448 12.9375 60.3125 C-2.83972625 54.06557123 -16.0141115 59.77757696 -27.0625 71.3125 Z M-317.0625 126.3125 C-317.0625 163.2725 -317.0625 200.2325 -317.0625 238.3125 C-311.4525 238.6425 -305.8425 238.9725 -300.0625 239.3125 C-296.01010814 242.35179389 -295.55990011 242.86893837 -294.125 247.3125 C-292.68831282 251.21426885 -292.68831282 251.21426885 -289.875 254.1875 C-288.4828125 254.744375 -288.4828125 254.744375 -287.0625 255.3125 C-286.35480469 255.67085937 -285.64710938 256.02921875 -284.91796875 256.3984375 C-280.41255753 258.66248417 -280.41255753 258.66248417 -275.5 259.25 C-274.05748931 258.6951882 -272.62000508 258.12642996 -271.1953125 257.52734375 C-270.51210938 257.25019531 -269.82890625 256.97304688 -269.125 256.6875 C-268.49722656 256.40648437 -267.86945313 256.12546875 -267.22265625 255.8359375 C-264.19829701 255.10309096 -262.07856305 255.5746367 -259.0625 256.3125 C-255.59313728 258.78962425 -252.73278593 261.89969878 -249.75 264.9375 C-248.92693359 265.73285156 -248.10386719 266.52820313 -247.25585938 267.34765625 C-243.76669409 270.85120392 -241.37457292 273.30866543 -239.890625 278.08203125 C-240.0677091 281.41040741 -240.63095711 283.4205422 -242.125 286.375 C-243.86671935 290.27349899 -243.86671935 290.27349899 -243.5 294.5 C-243.025625 295.428125 -242.55125 296.35625 -242.0625 297.3125 C-241.0725 299.6225 -240.0825 301.9325 -239.0625 304.3125 C-155.5725 304.3125 -72.0825 304.3125 13.9375 304.3125 C13.9375 264.3825 13.9375 224.4525 13.9375 183.3125 C0.0775 182.8175 0.0775 182.8175 -14.0625 182.3125 C-19.47081296 176.90418704 -19.47081296 176.90418704 -20.5625 172.875 C-22.88091442 167.13187382 -27.45044036 165.58522137 -32.87109375 163.2109375 C-37.63627923 161.86945322 -40.05923501 162.82944649 -44.4375 164.9375 C-48.46759329 166.46615607 -51.08668854 166.90109472 -55.0625 165.3125 C-58.51097606 162.7470508 -61.44699681 159.7652464 -64.4375 156.6875 C-65.25605469 155.89214844 -66.07460938 155.09679687 -66.91796875 154.27734375 C-70.40094389 150.75971214 -72.75904674 148.29897681 -74.23046875 143.515625 C-74.05999846 140.26479618 -73.58630713 138.49286631 -72 135.6875 C-70.7142882 133.58043037 -70.7142882 133.58043037 -70.0625 131.3125 C-71.0525 128.8375 -71.0525 128.8375 -72.0625 126.3125 C-152.9125 126.3125 -233.7625 126.3125 -317.0625 126.3125 Z M-340.4375 307.5 C-346.7725503 315.18156909 -348.7958815 323.30920051 -348.4453125 333.171875 C-347.23896536 343.06884537 -341.93075369 351.41015556 -334.25 357.625 C-325.82000687 363.45137943 -317.17411345 364.34664228 -307.0625 363.3125 C-303.44881228 362.39925827 -300.33000946 361.09317512 -297.0625 359.3125 C-296.42828125 358.97347656 -295.7940625 358.63445312 -295.140625 358.28515625 C-287.5084839 353.54039596 -282.64869324 345.31638117 -280.49609375 336.74609375 C-278.81749616 327.32477576 -280.69711198 318.78982929 -285.6875 310.625 C-292.15945312 301.66870302 -300.31774857 297.48302068 -311.0625 295.3125 C-322.81770866 294.79885168 -332.26747416 299.04197696 -340.4375 307.5 Z M-206.0625 373.3125 C-206.0625 383.8725 -206.0625 394.4325 -206.0625 405.3125 C-170.0925 405.3125 -134.1225 405.3125 -97.0625 405.3125 C-97.0625 394.7525 -97.0625 384.1925 -97.0625 373.3125 C-133.0325 373.3125 -169.0025 373.3125 -206.0625 373.3125 Z " fill="#57A4FF" transform="translate(413.0625,23.6875)"/>
<path d="M0 0 C0.0700903 22.95701665 0.12298831 45.91401564 0.15543652 68.87111759 C0.17090343 79.53056986 0.19198965 90.18995564 0.22631836 100.84936523 C0.25622602 110.14042643 0.27557628 119.43143947 0.28226548 128.72254747 C0.28617541 133.64182938 0.29536074 138.56097352 0.31719017 143.48021126 C0.33757685 148.11192232 0.34382936 152.74343906 0.33932304 157.37519073 C0.34014727 159.07350916 0.34609992 160.77183418 0.35761642 162.47011375 C0.37259494 164.79318416 0.36893446 167.11552578 0.36076355 169.43861389 C0.36352893 170.73742021 0.36629431 172.03622652 0.36914349 173.3743906 C-0.32194188 180.16201026 -3.21734917 185.10865256 -8 190 C-13.96527503 194.27677754 -18.64252753 194.5645909 -25.86424255 194.48101807 C-26.94828135 194.48443577 -28.03232015 194.48785347 -29.14920861 194.49137473 C-32.77609361 194.4979553 -36.40223608 194.47597346 -40.02905273 194.45410156 C-42.63103722 194.45297313 -45.23302297 194.45360686 -47.83500671 194.45587158 C-53.43402712 194.45796595 -59.03286063 194.44544795 -64.63183403 194.42292023 C-72.72691235 194.39037056 -80.82190059 194.37999019 -88.91703726 194.37496826 C-102.05175766 194.36622025 -115.18637854 194.33961811 -128.32104492 194.30175781 C-141.0778758 194.26502492 -153.83467962 194.23671943 -166.59155273 194.21972656 C-167.3782805 194.21867567 -168.16500827 194.21762477 -168.97557627 194.21654204 C-172.92247647 194.21132177 -176.86937687 194.20626697 -180.81627738 194.20129442 C-213.54425738 194.15984776 -246.27211536 194.08941283 -279 194 C-278.66577148 191.59228516 -278.66577148 191.59228516 -278 189 C-275.34765625 187.5234375 -275.34765625 187.5234375 -272.0625 186.375 C-267.21524908 184.79335174 -267.21524908 184.79335174 -264 181 C-263.6336141 178.58286521 -263.6336141 178.58286521 -263.5859375 175.89453125 C-263.54726563 174.91162109 -263.50859375 173.92871094 -263.46875 172.91601562 C-263.42234375 171.37977539 -263.42234375 171.37977539 -263.375 169.8125 C-263.33632813 168.77673828 -263.29765625 167.74097656 -263.2578125 166.67382812 C-263.16351704 164.11606378 -263.07791798 161.55830713 -263 159 C-261.72648335 158.99945523 -260.45296671 158.99891047 -259.14085865 158.99834919 C-228.91853339 158.9843088 -198.6963636 158.94457379 -168.47412362 158.87314438 C-164.75529182 158.8643775 -161.03645956 158.85582771 -157.31762695 158.84741211 C-156.57726604 158.84573305 -155.83690513 158.84405398 -155.07410904 158.84232404 C-143.08207324 158.8156452 -131.09008523 158.80655833 -119.0980228 158.80395857 C-106.79548672 158.80090045 -94.49308897 158.77897025 -82.19061536 158.73947543 C-74.59763327 158.71569575 -67.00492722 158.70668368 -59.411913 158.71648689 C-53.59219157 158.72242486 -47.77274871 158.70212161 -41.95309639 158.67193985 C-39.56378834 158.66367855 -37.17443333 158.66398936 -34.78512955 158.67340279 C-31.52829241 158.68496639 -28.2730262 158.66599381 -25.01631165 158.63923645 C-24.06592068 158.64990971 -23.11552971 158.66058297 -22.13633901 158.67157966 C-17.74295727 158.60401438 -15.6011044 158.41762577 -11.9139328 155.85591125 C-9.65316569 152.48246458 -9.3708295 150.70262989 -9.36076355 146.66618347 C-9.34547607 145.38877289 -9.3301886 144.1113623 -9.31443787 142.79524231 C-9.32268922 141.38717373 -9.33141794 139.97910789 -9.34057617 138.57104492 C-9.33212072 137.08262795 -9.32147558 135.59422204 -9.30880737 134.10583496 C-9.28066226 130.07098141 -9.28313226 126.0366595 -9.29110122 122.00173736 C-9.29422614 117.78292355 -9.26919238 113.56427911 -9.24714661 109.34553528 C-9.20969146 101.35937079 -9.19755775 93.37337659 -9.1945222 85.38713294 C-9.18983296 76.29400031 -9.15691398 67.20103843 -9.12162435 58.10798109 C-9.04967288 39.40533717 -9.01317037 20.70277302 -9 2 C-3.375 -1.125 -3.375 -1.125 0 0 Z " fill="#9AC8FF" transform="translate(453,186)"/>
<path d="M0 0 C3.96 0 7.92 0 12 0 C12.680625 2.5059375 12.680625 2.5059375 13.375 5.0625 C15.71645989 10.38213255 18.36412974 12.07010808 23.54541016 14.13061523 C26.67750134 15.23996243 29.83000609 16.27188622 32.99829102 17.27270508 C35 18 35 18 37.77734375 19.69921875 C40.39081378 21.22871879 41.60544797 21.24962943 44.5625 20.8125 C45.30628906 20.71582031 46.05007813 20.61914062 46.81640625 20.51953125 C49.04711066 20.0908378 49.04711066 20.0908378 51.02734375 18.88671875 C53 18 53 18 55.04296875 18.19921875 C57.2654511 19.10861772 58.60034219 20.13433043 60.3125 21.8125 C60.84488281 22.31394531 61.37726563 22.81539062 61.92578125 23.33203125 C63 25 63 25 62.734375 27.0546875 C62.19030593 28.49589173 61.58065096 29.91270086 60.9375 31.3125 C59.32944053 35.92227048 59.23230444 39.26360342 61.23828125 43.80078125 C62.29930637 45.87280798 63.3792138 47.93526033 64.4765625 49.98828125 C66.15779144 53.31194154 67.28105763 56.57774113 68.26171875 60.16015625 C69.5151309 63.28373892 71.3078389 64.64256275 74.26171875 66.16796875 C75.06222656 66.50441406 75.86273438 66.84085937 76.6875 67.1875 C78.110625 67.785625 79.53375 68.38375 81 69 C81 72.96 81 76.92 81 81 C78.49348958 81.91145833 75.98697917 82.82291667 73.48046875 83.734375 C69.71068605 85.65785468 68.44140409 87.82516021 66.97265625 91.734375 C66.52212891 93.22710937 66.52212891 93.22710937 66.0625 94.75 C64.89094655 98.4962465 63.6639803 101.8002217 61.6875 105.1875 C58.76927842 110.69206697 60.36253463 115.86261612 62.0625 121.5625 C62.371875 122.366875 62.68125 123.17125 63 124 C60.83580851 126.56757629 58.66249669 128.9428597 56 131 C52.66149808 131.06546082 50.91970835 130.5340242 48.0625 128.875 C44.71974901 127.45686322 42.5056031 128.15187022 39 129 C36.4969137 130.16530236 34.07012752 131.43745508 31.6328125 132.734375 C28.22946801 134.3704041 24.78563826 135.32265122 21.12890625 136.2265625 C17.65348042 137.48919427 16.39143904 139.16868298 14.83203125 142.48046875 C14.49558594 143.37378906 14.15914063 144.26710937 13.8125 145.1875 C13.214375 146.775625 12.61625 148.36375 12 150 C8.04 150 4.08 150 0 150 C-4 140.25 -4 140.25 -4 138 C-4.82177734 137.79697266 -4.82177734 137.79697266 -5.66015625 137.58984375 C-12.04338023 135.85651301 -17.74186033 133.36117745 -23.55688477 130.24975586 C-28.11270679 127.95512902 -31.07456368 127.80044724 -36 129 C-37.051875 129.556875 -37.051875 129.556875 -38.125 130.125 C-40 131 -40 131 -42.375 131.0625 C-46.3547949 129.45163064 -48.44752651 126.35944106 -51 123 C-50.69964844 122.41992188 -50.39929688 121.83984375 -50.08984375 121.2421875 C-49.70957031 120.46101563 -49.32929688 119.67984375 -48.9375 118.875 C-48.55464844 118.10929687 -48.17179687 117.34359375 -47.77734375 116.5546875 C-46.11284934 111.08443955 -48.45280836 106.6425861 -50.875 101.75 C-52.88850933 97.60927729 -54.35648309 93.87157608 -55.3125 89.375 C-56.10493684 86.41176647 -56.41532229 85.35124706 -59.07421875 83.75390625 C-61.38131725 82.97744315 -63.60973259 82.44601004 -66 82 C-66.99 81.67 -67.98 81.34 -69 81 C-69 77.04 -69 73.08 -69 69 C-66.215625 68.01 -66.215625 68.01 -63.375 67 C-58.24024067 64.49007641 -56.15181557 62.27176666 -54.15673828 57.09960938 C-53.45898458 55.00208502 -52.80957692 52.89729966 -52.18359375 50.77734375 C-51 47 -51 47 -49.3671875 44.2890625 C-47.8518622 41.751975 -47.62145946 40.35852397 -47.6875 37.4375 C-47.69330078 36.32181641 -47.69330078 36.32181641 -47.69921875 35.18359375 C-48.03190709 32.76836282 -48.87612064 31.14477375 -50 29 C-50 25.10669775 -48.57813123 23.34061649 -45.9375 20.6875 C-44.968125 19.800625 -43.99875 18.91375 -43 18 C-37.25 19.875 -37.25 19.875 -35 21 C-29.37553903 21.47971299 -25.47785288 20.22437457 -20.5625 17.6875 C-16.55658613 15.67814699 -12.74677007 13.82420636 -8.375 12.75 C-2.98068477 9.95294766 -2.09765081 5.57188496 0 0 Z M-21 54 C-26.25559061 60.33366048 -28.62778385 68.51744881 -28.28125 76.71875 C-26.99461742 87.15476978 -22.17572646 96.13342788 -13.92578125 102.71875 C-6.63029811 107.57254 1.24094009 109.84074746 10 109 C21.16062655 106.74658256 29.42926585 101.33276841 36 92 C40.60624632 83.48620765 41.72186287 74.08880018 39.08203125 64.75390625 C34.96257012 54.07530312 29.25418271 48.04893448 19 43 C3.22277375 36.75307123 -9.9516115 42.46507696 -21 54 Z " fill="#99C8FF" transform="translate(407,41)"/>
<path d="M0 0 C3.96 0 7.92 0 12 0 C12.680625 2.5059375 12.680625 2.5059375 13.375 5.0625 C15.71645989 10.38213255 18.36412974 12.07010808 23.54541016 14.13061523 C26.67571776 15.23933071 29.82719171 16.26926744 32.99194336 17.27490234 C35.54206159 18.19573531 37.71236512 19.55916919 40 21 C43.80541073 21.48579712 45.62239851 21.19265382 49.0625 19.4375 C52 18 52 18 54.5625 18 C58.02734559 19.42147511 59.77301953 20.98702642 62 24 C61.93839546 27.51145862 61.56103361 29.97143839 59.875 33.0625 C58.5654407 35.96223844 59.31015897 37.9250703 60 41 C60.89364643 43.13244372 61.85622007 45.23692596 62.875 47.3125 C64.76609423 51.21957204 66.3168129 54.85759862 67.375 59.0625 C68.16895138 61.65829313 68.6297333 62.72130463 70.81640625 64.3671875 C72.84831766 65.39249823 74.86739932 66.20999629 77 67 C78.32 67.66 79.64 68.32 81 69 C81 72.63 81 76.26 81 80 C80.21496094 80.22429687 79.42992187 80.44859375 78.62109375 80.6796875 C72.79426569 82.86742908 69.34540422 84.60788555 66.71484375 90.30078125 C65.16824964 94.16902801 63.85699269 98.1068995 62.67919922 102.10229492 C62 104 62 104 60 107 C59.68399811 109.14790929 59.68399811 109.14790929 59.75 111.4375 C59.74484375 112.19933594 59.7396875 112.96117187 59.734375 113.74609375 C60.02712782 116.23018757 60.81131816 117.81922601 62 120 C62.5 122.375 62.5 122.375 62 125 C60.32820821 127.49039329 58.53011728 129.37842483 56 131 C52.75819513 131 50.8406767 130.4466095 48 128.9375 C45.0194683 127.54037576 43.29733876 127.5725672 40 128 C37.53452159 129.10506264 35.17928969 130.35542817 32.80078125 131.63671875 C28.86285886 133.55350385 24.77262112 134.72013196 20.56640625 135.91015625 C16.87926039 137.47593052 15.63863241 139.55979193 14.05078125 143.140625 C13.80714844 143.83671875 13.56351562 144.5328125 13.3125 145.25 C12.6628125 147.10625 12.6628125 147.10625 12 149 C8.04 149 4.08 149 0 149 C-0.495 147.30875 -0.99 145.6175 -1.5 143.875 C-3.24943806 139.93623627 -4.75870324 137.82664026 -8.6484375 136.07421875 C-12.05040176 134.77098268 -15.5272866 133.75253797 -19.0168457 132.71362305 C-21.1080923 131.9611038 -22.87912752 131.00565399 -24.78515625 129.8671875 C-28.60970945 127.64587956 -30.64246484 127.44540462 -35 128 C-37.00781177 128.98422146 -39.00892752 129.98234073 -41 131 C-44.37053861 130.6262373 -45.9701153 129.37283139 -48.25 126.9375 C-48.77078125 126.38964844 -49.2915625 125.84179688 -49.828125 125.27734375 C-50.21484375 124.85582031 -50.6015625 124.43429687 -51 124 C-50.67515625 123.14728516 -50.67515625 123.14728516 -50.34375 122.27734375 C-47.38021653 114.09322757 -47.38021653 114.09322757 -48.984375 105.73046875 C-49.84440257 104.04492089 -50.72411711 102.36930383 -51.62109375 100.703125 C-57 90.15864023 -57 90.15864023 -57 85 C-57.61488281 84.80664062 -58.22976562 84.61328125 -58.86328125 84.4140625 C-59.67152344 84.15367187 -60.47976562 83.89328125 -61.3125 83.625 C-62.11300781 83.36976563 -62.91351563 83.11453125 -63.73828125 82.8515625 C-66 82 -66 82 -69 80 C-69.29296875 77.1796875 -69.29296875 77.1796875 -69.1875 73.875 C-69.16042969 72.77929688 -69.13335937 71.68359375 -69.10546875 70.5546875 C-69.07066406 69.71164062 -69.03585938 68.86859375 -69 68 C-67.96939453 67.65388672 -67.96939453 67.65388672 -66.91796875 67.30078125 C-66.01691406 66.97464844 -65.11585937 66.64851563 -64.1875 66.3125 C-63.29417969 65.99925781 -62.40085937 65.68601562 -61.48046875 65.36328125 C-56.57413608 62.66672991 -55.33342319 57.53016106 -53.5 52.5 C-52.30978346 49.2345341 -51.18677814 46.30429644 -49.3671875 43.33984375 C-47.40336843 39.97890768 -47.40989388 36.75455021 -48 33 C-48.53625 31.9275 -49.0725 30.855 -49.625 29.75 C-51 27 -51 27 -50.5 24.9375 C-48.44778086 22.28671695 -46.6400477 20.10003794 -44 18 C-40.82557782 18.06478413 -38.80428854 18.53299375 -36.0625 20.125 C-31.96115252 21.8649656 -27.72027362 20.28949626 -23.75390625 18.6953125 C-22.70074219 18.17710937 -21.64757812 17.65890625 -20.5625 17.125 C-16.86536166 15.33386623 -13.28709954 13.6885041 -9.375 12.4375 C-5.48832563 10.78206462 -4.67612349 9.7933321 -3 6 C-2.443125 4.906875 -1.88625 3.81375 -1.3125 2.6875 C-0.879375 1.800625 -0.44625 0.91375 0 0 Z M-20.375 52.1875 C-26.7100503 59.86906909 -28.7333815 67.99670051 -28.3828125 77.859375 C-27.17646536 87.75634537 -21.86825369 96.09765556 -14.1875 102.3125 C-5.75750687 108.13887943 2.88838655 109.03414228 13 108 C16.61368772 107.08675827 19.73249054 105.78067512 23 104 C23.63421875 103.66097656 24.2684375 103.32195312 24.921875 102.97265625 C32.5540161 98.22789596 37.41380676 90.00388117 39.56640625 81.43359375 C41.24500384 72.01227576 39.36538802 63.47732929 34.375 55.3125 C27.90304688 46.35620302 19.74475143 42.17052068 9 40 C-2.75520866 39.48635168 -12.20497416 43.72947696 -20.375 52.1875 Z " fill="#99C8FF" transform="translate(93,279)"/>
<path d="M0 0 C0.92997525 -0.00538554 1.85995051 -0.01077108 2.81810683 -0.01631981 C5.92401438 -0.0305894 9.02949513 -0.02349799 12.13542175 -0.01637268 C14.36650942 -0.02207682 16.59759417 -0.02904125 18.82867432 -0.03717041 C24.88249926 -0.05511369 30.93617935 -0.05393097 36.9900229 -0.04822803 C42.04708515 -0.04513733 47.10411953 -0.05122744 52.16117781 -0.05726677 C64.77645503 -0.07211775 77.39164504 -0.06849536 90.00691571 -0.05640347 C100.94760944 -0.04647644 111.88813392 -0.05940382 122.82880155 -0.08333766 C134.0772294 -0.10775826 145.32558057 -0.11692981 156.57404155 -0.11068493 C162.88332541 -0.10731661 169.19246951 -0.10972215 175.50173378 -0.12693596 C181.43699947 -0.1424224 187.37194264 -0.1384303 193.30719566 -0.11963081 C195.48156549 -0.11594943 197.6559593 -0.11904018 199.83030701 -0.1295166 C202.80675546 -0.14275911 205.78214135 -0.13114964 208.75854492 -0.11352539 C210.03839436 -0.1279329 210.03839436 -0.1279329 211.34409934 -0.14263147 C217.54390284 -0.06749429 223.20732231 1.15643969 228.56974792 4.38768005 C232.56974792 9.38768005 232.56974792 9.38768005 232.56974792 26.38768005 C148.41974792 26.38768005 64.26974792 26.38768005 -22.43025208 26.38768005 C-22.43025208 10.38768005 -22.43025208 10.38768005 -19.86775208 6.07518005 C-14.2743044 0.54236596 -7.41874455 -0.05184985 0 0 Z " fill="#9AC8FF" transform="translate(156.4302520751953,444.61231994628906)"/>
<path d="M0 0 C9.19617916 7.04997044 15.4316474 17.25018859 18.69140625 28.35546875 C20.69217357 45.50128494 18.97304075 59.64903126 8.078125 73.5703125 C0.31816014 82.64305337 -10.88508849 89.7255543 -23 91 C-33.24289118 91.69837894 -42.67064653 91.77662897 -52 87 C-52.83660156 86.5875 -53.67320312 86.175 -54.53515625 85.75 C-67.45796315 78.7193539 -76.38866623 67.14332013 -80.57641602 53.06176758 C-83.35733225 39.52583814 -81.34547685 25.70777039 -74.16796875 14.015625 C-66.20852092 2.39828498 -55.4690122 -5.35793581 -41.9375 -9.4375 C-26.42227264 -11.65396105 -13.08625678 -8.65832839 0 0 Z M-58 20 C-63.25559061 26.33366048 -65.62778385 34.51744881 -65.28125 42.71875 C-63.99461742 53.15476978 -59.17572646 62.13342788 -50.92578125 68.71875 C-43.63029811 73.57254 -35.75905991 75.84074746 -27 75 C-15.83937345 72.74658256 -7.57073415 67.33276841 -1 58 C3.60624632 49.48620765 4.72186287 40.08880018 2.08203125 30.75390625 C-2.03742988 20.07530312 -7.74581729 14.04893448 -18 9 C-33.77722625 2.75307123 -46.9516115 8.46507696 -58 20 Z " fill="#57A4FF" transform="translate(444,75)"/>
<path d="M0 0 C6.12802947 5.12622987 10.39301839 10.89275221 14 18 C14.41507812 18.79664063 14.83015625 19.59328125 15.2578125 20.4140625 C20.31307364 31.83258941 19.5067958 46.50539965 15.328125 58.0703125 C8.3755749 73.40682007 -2.13627702 82.09781485 -17.578125 88.23828125 C-30.42721052 92.27952589 -44.08896252 90.56794219 -55.94140625 84.4921875 C-69.85591409 76.17057642 -77.28358247 65.25899788 -82 50 C-85.34625103 35.84447754 -81.34615045 22.21470771 -74 10 C-67.06947522 0.0628505 -55.70096528 -7.75891985 -43.8125 -10.25 C-27.63704055 -12.70082719 -13.11847164 -10.16629577 0 0 Z M-58.375 17.1875 C-64.7100503 24.86906909 -66.7333815 32.99670051 -66.3828125 42.859375 C-65.17646536 52.75634537 -59.86825369 61.09765556 -52.1875 67.3125 C-43.75750687 73.13887943 -35.11161345 74.03414228 -25 73 C-21.38631228 72.08675827 -18.26750946 70.78067512 -15 69 C-14.36578125 68.66097656 -13.7315625 68.32195312 -13.078125 67.97265625 C-5.4459839 63.22789596 -0.58619324 55.00388117 1.56640625 46.43359375 C3.24500384 37.01227576 1.36538802 28.47732929 -3.625 20.3125 C-10.09695312 11.35620302 -18.25524857 7.17052068 -29 5 C-40.75520866 4.48635168 -50.20497416 8.72947696 -58.375 17.1875 Z " fill="#57A4FF" transform="translate(131,314)"/>
<path d="M0 0 C0.83004555 -0.0039821 1.6600911 -0.00796419 2.51528955 -0.01206696 C3.87520819 -0.00332844 3.87520819 -0.00332844 5.26259995 0.00558662 C6.71330403 0.00302335 6.71330403 0.00302335 8.19331527 0.00040829 C11.44237603 -0.00289272 14.69123146 0.00812726 17.94027328 0.01904488 C20.26595683 0.01960886 22.59164073 0.01929269 24.91732407 0.01815987 C31.23923068 0.01758484 37.56106176 0.02936339 43.88295078 0.04330778 C49.81790876 0.05452611 55.75286375 0.056553 61.6878309 0.05861153 C73.44321659 0.06298881 85.19857453 0.07629882 96.95394516 0.09521675 C108.37321458 0.11357468 119.79247646 0.12773161 131.21175766 0.13623238 C131.91563772 0.13675782 132.61951778 0.13728327 133.34472755 0.13782464 C136.87588578 0.14043471 140.40704406 0.14296213 143.93820238 0.14544845 C173.23285589 0.16618199 202.52748226 0.20155711 231.82210922 0.24609566 C232.81210922 4.70109566 232.81210922 4.70109566 233.82210922 9.24609566 C232.61651289 9.24756222 231.41091656 9.24902878 230.168787 9.25053978 C201.55101921 9.28624098 172.93334062 9.34248099 144.31566768 9.42401661 C140.79340122 9.43403408 137.27113429 9.44387821 133.74886703 9.45361519 C133.04764643 9.45555656 132.34642582 9.45749793 131.6239561 9.45949814 C120.2695605 9.4905201 108.91518511 9.50749933 97.56075512 9.51928988 C85.9102389 9.53170044 74.25983481 9.55949712 62.60938466 9.60070872 C56.06539732 9.62336883 49.52156148 9.6390036 42.97753143 9.63797951 C36.81991172 9.6372356 30.66262748 9.65507853 24.50509453 9.68726349 C22.24359987 9.69579213 19.98206771 9.69749243 17.72056389 9.69189835 C14.63503 9.68528177 11.55057077 9.7031238 8.46514511 9.72711372 C7.11980141 9.7154731 7.11980141 9.7154731 5.74727905 9.70359731 C0.29833734 9.77870137 -2.88102527 10.5748508 -7.17789078 14.24609566 C-9.39249841 17.56800711 -9.42806437 18.58354588 -9.42944717 22.45036507 C-9.43752144 24.06734795 -9.43752144 24.06734795 -9.44575882 25.71699715 C-9.44163483 26.89988823 -9.43751083 28.08277931 -9.43326187 29.30151558 C-9.43869255 31.17021309 -9.43869255 31.17021309 -9.44423294 33.07666206 C-9.45113711 35.78754219 -9.45451281 38.49817413 -9.45228577 41.20903778 C-9.44945207 45.50037428 -9.46380824 49.79154619 -9.48126602 54.08284187 C-9.52828273 66.28607889 -9.55222166 78.48930531 -9.55875015 90.69262886 C-9.56250769 97.43189018 -9.58059532 104.17096576 -9.61384451 110.91014749 C-9.63400612 115.17064023 -9.63645436 119.43065217 -9.62556434 123.69117296 C-9.62233124 126.97542325 -9.64507855 130.25951529 -9.66373062 133.54370308 C-9.65555817 134.71647301 -9.64738571 135.88924294 -9.63896561 137.09755135 C-9.69762451 142.9093653 -10.19968435 147.58415157 -12.73502922 152.8450079 C-14.92405194 154.97065393 -17.22650733 154.94024698 -20.17789078 155.24609566 C-20.27142552 137.39133857 -20.34191468 119.53664526 -20.38513947 101.68169594 C-20.40574497 93.3909046 -20.43382691 85.1002657 -20.47964859 76.80957222 C-20.51957818 69.58149756 -20.54533822 62.35353332 -20.55424476 55.12535143 C-20.5594492 51.29975301 -20.57163907 47.47447043 -20.600811 43.64897346 C-20.62807721 40.04398411 -20.63631342 36.43943899 -20.6303215 32.83435631 C-20.63193674 30.88921869 -20.65340076 28.94412883 -20.67557144 26.9991169 C-20.63738602 18.85911709 -19.75894772 13.26079621 -14.17789078 7.00390816 C-13.51789078 6.46508003 -12.85789078 5.92625191 -12.17789078 5.37109566 C-11.51789078 4.81679878 -10.85789078 4.26250191 -10.17789078 3.69140816 C-6.80138775 1.25135714 -4.19839756 -0.0044569 0 0 Z " fill="#99C8FF" transform="translate(90.17789077758789,123.75390434265137)"/>
<path d="M0 0 C2.5 1.64453125 2.5 1.64453125 5 3.8125 C5.94875 4.62332031 6.8975 5.43414062 7.875 6.26953125 C8.91668152 7.1796705 9.95834753 8.0898275 11 9 C12.73424057 10.49142687 14.47197178 11.97872325 16.2097168 13.46606445 C17.40801244 14.49277814 18.60478031 15.52127748 19.80004883 16.55151367 C23.38272559 19.63647373 27.00858798 22.65458031 30.6875 25.625 C32.45886584 27.08268647 34.22968671 28.54103541 36 30 C37.03125 30.82371094 38.0625 31.64742187 39.125 32.49609375 C47.70065992 39.68258427 47.70065992 39.68258427 48.1875 44.125 C47.32371234 49.51287554 42.97857832 52.67924703 39 56 C37.76830078 57.03060547 37.76830078 57.03060547 36.51171875 58.08203125 C34.70139289 59.5705214 32.8818354 61.04783306 31.0546875 62.515625 C27.6498072 65.28481154 24.32223401 68.13279219 21 71 C0.07953643 89 0.07953643 89 -5.5625 89 C-9 88 -9 88 -11.5 85.875 C-13.5147975 82.01330479 -13.25674722 80.13987321 -12 76 C-10.37718073 74.01073767 -8.94042235 72.63263122 -7 71 C-6.28457031 70.34257812 -5.56914062 69.68515625 -4.83203125 69.0078125 C2.14733314 62.59434252 9.44193785 56.59456934 16.8828125 50.7265625 C17.78773438 50.01242188 18.69265625 49.29828125 19.625 48.5625 C20.44226563 47.92441406 21.25953125 47.28632813 22.1015625 46.62890625 C24.09638567 45.1302192 24.09638567 45.1302192 25 43 C24.40775635 42.72615479 23.8155127 42.45230957 23.20532227 42.17016602 C21.07882035 41.04182286 19.50894637 39.86920306 17.71484375 38.27734375 C17.10705078 37.74310791 16.49925781 37.20887207 15.87304688 36.65844727 C15.23431641 36.09053467 14.59558594 35.52262207 13.9375 34.9375 C12.59350594 33.75660726 11.24844627 32.57692624 9.90234375 31.3984375 C9.24089355 30.81932617 8.57944336 30.24021484 7.89794922 29.64355469 C5.30499243 27.39814883 2.6618313 25.22593015 0 23.0625 C-1.29550781 21.99902344 -1.29550781 21.99902344 -2.6171875 20.9140625 C-4.11724154 19.70910106 -5.64091356 18.53242961 -7.1953125 17.3984375 C-10.51528076 14.88493926 -12.38340087 13.12193819 -13.1875 8.9375 C-12.97347843 4.4430471 -12.27697059 3.0038897 -9 0 C-5.40384196 -1.19871935 -3.65246675 -0.9359446 0 0 Z " fill="#56A4FF" transform="translate(305,195)"/>
<path d="M0 0 C3.23947443 2.2164825 3.89358068 3.4359776 4.625 7.3125 C3.267764 15.3201924 -3.80789712 19.64256318 -9.8515625 24.4609375 C-14.04243018 27.80879913 -18.08311258 31.33150051 -22.140625 34.83862305 C-25.37550068 37.62861015 -28.64441202 40.35448963 -32 43 C-30.41648247 47.35726067 -27.02060588 49.82285385 -23.5625 52.6875 C-22.93649902 53.21496826 -22.31049805 53.74243652 -21.66552734 54.28588867 C-16.97721921 58.22461613 -12.23403824 62.09656652 -7.484375 65.9609375 C2.632 74.264 2.632 74.264 4 77 C4.56818182 83.13636364 4.56818182 83.13636364 2.4375 86.375 C-0.94826877 88.63217918 -2.90584358 89.13647188 -7 89 C-10.05707559 87.48176696 -12.44990556 85.24572833 -15 83 C-16.07674719 82.07911571 -17.15498909 81.15997748 -18.234375 80.2421875 C-20.66042857 78.17457788 -23.0768308 76.09633435 -25.48828125 74.01171875 C-28.45258884 71.4574964 -31.46059392 68.96474732 -34.5 66.5 C-38.89584168 62.92305581 -43.24386994 59.29451082 -47.5625 55.625 C-48.1709375 55.11259766 -48.779375 54.60019531 -49.40625 54.07226562 C-52.02695472 51.83486125 -54.07652586 49.88521121 -56 47 C-56.31254667 42.46807331 -56.09467121 40.26222293 -53.0859375 36.79296875 C-50.46640955 34.41876167 -47.77011847 32.19646996 -45 30 C-43.24954243 28.56305722 -41.49954521 27.12555348 -39.75 25.6875 C-38.38101563 24.57955078 -38.38101563 24.57955078 -36.984375 23.44921875 C-33.61237271 20.68188179 -30.3036897 17.84814765 -27 15 C-22.62870073 11.24086215 -18.24692404 7.4971139 -13.8125 3.8125 C-12.95269531 3.09707031 -12.09289062 2.38164062 -11.20703125 1.64453125 C-7.28099748 -1.28088506 -4.61729782 -1.22499738 0 0 Z " fill="#56A4FF" transform="translate(227,195)"/>
<path d="M0 0 C2.375 1.5 2.375 1.5 4 4 C4.87597273 12.80760431 2.17439037 20.90140097 -0.1640625 29.29296875 C-0.59908813 30.88622884 -1.03309958 32.47976616 -1.46615601 34.07356262 C-2.60790062 38.26491826 -3.76320697 42.45241564 -4.92150879 46.63922119 C-6.07686992 50.82432294 -7.2196256 55.01285931 -8.36328125 59.20117188 C-10.11333936 65.60559684 -11.87215354 72.00754225 -13.63769531 78.40771484 C-15.0817002 83.64302129 -16.51137553 88.88165744 -17.91699219 94.12744141 C-18.19409027 95.15871658 -18.47118835 96.18999176 -18.75668335 97.2525177 C-19.24773785 99.08464448 -19.7355324 100.91765001 -20.21914673 102.75175476 C-20.42961639 103.53532852 -20.64008606 104.31890228 -20.85693359 105.1262207 C-21.03179291 105.78628616 -21.20665222 106.44635162 -21.3868103 107.12641907 C-22.34298865 110.04799053 -23.23082972 112.40175645 -25.6875 114.3125 C-29.11323799 115.33096265 -31.55816074 114.86045982 -35 114 C-37.4375 112.375 -37.4375 112.375 -39 110 C-39.47307033 104.0884118 -38.1993873 99.02052537 -36.66088867 93.38037109 C-36.41211472 92.44128403 -36.16334076 91.50219696 -35.9070282 90.53465271 C-35.08605065 87.44518207 -34.25242204 84.35929331 -33.41796875 81.2734375 C-32.8416879 79.12080117 -32.26595644 76.9680177 -31.69075012 74.81509399 C-30.48492362 70.30976697 -29.27290083 65.80616616 -28.05639648 61.30371094 C-26.4983336 55.53536614 -24.95507085 49.76318567 -23.41633129 43.98966026 C-22.23041807 39.54604734 -21.03704078 35.10446591 -19.84136391 30.66347122 C-19.26941494 28.53581857 -18.69970536 26.4075626 -18.13228416 24.27869797 C-17.33813885 21.30399094 -16.53406818 18.33214309 -15.72729492 15.36083984 C-15.49496155 14.4827919 -15.26262817 13.60474396 -15.02325439 12.7000885 C-12.29202844 2.73878019 -12.29202844 2.73878019 -8.1875 -0.375 C-5.08685996 -1.26089715 -3.08383471 -0.89945179 0 0 Z " fill="#56A4FF" transform="translate(279,182)"/>
</svg>
